<svg width="5" height="6" viewBox="0 0 5 6" fill="none" xmlns="http://www.w3.org/2000/svg">
<path d="M0.603683 2.79554C0.691931 2.88449 0.811606 2.93445 0.936389 2.93445C1.06117 2.93445 1.18085 2.88449 1.26909 2.79554L2.11286 1.94488L2.11286 5.06951C2.11286 5.19534 2.16244 5.31601 2.25069 5.40499C2.33894 5.49396 2.45864 5.54395 2.58345 5.54395C2.70826 5.54395 2.82795 5.49396 2.9162 5.40499C3.00446 5.31601 3.05404 5.19534 3.05404 5.06951L3.05404 1.94488L3.8978 2.79554C3.98656 2.88197 4.10543 2.92979 4.22881 2.9287C4.3522 2.92762 4.47023 2.87773 4.55748 2.78976C4.64473 2.7018 4.69422 2.58281 4.69529 2.45841C4.69637 2.33401 4.64893 2.21417 4.56321 2.12469L2.91615 0.464169C2.82791 0.375226 2.70823 0.325261 2.58345 0.325261C2.45867 0.325261 2.33899 0.375226 2.25074 0.464169L0.603683 2.12469C0.515462 2.21366 0.465901 2.33431 0.465901 2.46012C0.465901 2.58592 0.515462 2.70657 0.603683 2.79554Z" fill="#00A389"/>
</svg>
