<svg width="28" height="29" viewBox="0 0 28 29" fill="none" xmlns="http://www.w3.org/2000/svg">
<path d="M4.66667 23.513H11.6667C11.6667 24.1319 11.9125 24.7254 12.3501 25.1629C12.7877 25.6005 13.3812 25.8464 14 25.8464C14.6188 25.8464 15.2123 25.6005 15.6499 25.1629C16.0875 24.7254 16.3333 24.1319 16.3333 23.513H23.3333C23.6428 23.513 23.9395 23.3901 24.1583 23.1713C24.3771 22.9525 24.5 22.6558 24.5 22.3464C24.5 22.0369 24.3771 21.7402 24.1583 21.5214C23.9395 21.3026 23.6428 21.1797 23.3333 21.1797V13.013C23.3333 10.5377 22.35 8.1637 20.5997 6.41336C18.8493 4.66302 16.4754 3.67969 14 3.67969C11.5246 3.67969 9.15068 4.66302 7.40034 6.41336C5.65 8.1637 4.66667 10.5377 4.66667 13.013V21.1797C4.35725 21.1797 4.0605 21.3026 3.84171 21.5214C3.62292 21.7402 3.5 22.0369 3.5 22.3464C3.5 22.6558 3.62292 22.9525 3.84171 23.1713C4.0605 23.3901 4.35725 23.513 4.66667 23.513ZM7 13.013C7 11.1565 7.7375 9.37603 9.05025 8.06327C10.363 6.75052 12.1435 6.01302 14 6.01302C15.8565 6.01302 17.637 6.75052 18.9497 8.06327C20.2625 9.37603 21 11.1565 21 13.013V21.1797H7V13.013Z" fill="#2D9CDB"/>
</svg>
