<svg width="15" height="18" viewBox="0 0 15 18" fill="none" xmlns="http://www.w3.org/2000/svg">
<path d="M11.9938 12.5111C12.3183 12.0806 12.4973 11.5378 12.5 10.9763C12.5 10.3317 12.2695 9.71349 11.8593 9.25768C11.4491 8.80186 10.8927 8.54578 10.3125 8.54578H10.1375C10.6529 7.86522 10.9362 7.00469 10.9375 6.11523C10.939 5.47394 10.7951 4.84257 10.5191 4.27934C10.2431 3.71611 9.84398 3.23915 9.35845 2.89244C8.87291 2.54574 8.31662 2.34046 7.74087 2.29552C7.16513 2.25059 6.58848 2.36745 6.06409 2.63533C5.53969 2.90321 5.08445 3.31349 4.74033 3.82832C4.39621 4.34316 4.1743 4.94598 4.09506 5.5812C4.01582 6.21641 4.08181 6.86357 4.28693 7.463C4.49205 8.06242 4.8297 8.5948 5.26875 9.01106C4.08767 9.51261 3.07126 10.4004 2.35376 11.5572C1.63626 12.714 1.2514 14.0853 1.25 15.4902C1.25 15.6744 1.31585 15.851 1.43306 15.9813C1.55027 16.1115 1.70924 16.1847 1.875 16.1847C2.04076 16.1847 2.19973 16.1115 2.31694 15.9813C2.43415 15.851 2.5 15.6744 2.5 15.4902C2.5 14.0168 3.02678 12.6037 3.96447 11.5619C4.90215 10.52 6.17392 9.93467 7.5 9.93467H8.34375C8.16068 10.3486 8.09036 10.8129 8.14143 11.2705C8.1925 11.7282 8.36274 12.1594 8.63125 12.5111C8.0988 12.842 7.65538 13.3246 7.34668 13.9093C7.03797 14.494 6.87516 15.1596 6.875 15.8374C6.875 16.0216 6.94085 16.1983 7.05806 16.3285C7.17527 16.4587 7.33424 16.5319 7.5 16.5319C7.66576 16.5319 7.82473 16.4587 7.94194 16.3285C8.05915 16.1983 8.125 16.0216 8.125 15.8374C8.125 15.1928 8.35547 14.5746 8.7657 14.1188C9.17594 13.663 9.73234 13.4069 10.3125 13.4069C10.8927 13.4069 11.4491 13.663 11.8593 14.1188C12.2695 14.5746 12.5 15.1928 12.5 15.8374C12.5 16.0216 12.5658 16.1983 12.6831 16.3285C12.8003 16.4587 12.9592 16.5319 13.125 16.5319C13.2908 16.5319 13.4497 16.4587 13.5669 16.3285C13.6842 16.1983 13.75 16.0216 13.75 15.8374C13.7498 15.1596 13.587 14.494 13.2783 13.9093C12.9696 13.3246 12.5262 12.842 11.9938 12.5111ZM7.5 8.54578C7.06735 8.54578 6.64442 8.40323 6.28469 8.13616C5.92496 7.86909 5.64458 7.48949 5.47901 7.04536C5.31345 6.60123 5.27013 6.11253 5.35453 5.64105C5.43894 5.16957 5.64728 4.73648 5.9532 4.39657C6.25913 4.05665 6.64891 3.82516 7.07324 3.73137C7.49757 3.63759 7.93741 3.68572 8.33712 3.86969C8.73683 4.05365 9.07847 4.36518 9.31884 4.76488C9.55921 5.16459 9.6875 5.63451 9.6875 6.11523C9.6875 6.75985 9.45703 7.37807 9.0468 7.83389C8.63656 8.28971 8.08016 8.54578 7.5 8.54578ZM10.3125 12.018C10.0639 12.018 9.8254 11.9083 9.64959 11.7129C9.47377 11.5176 9.375 11.2526 9.375 10.9763C9.37664 10.7006 9.47594 10.4367 9.6514 10.2418C9.82686 10.0468 10.0644 9.93649 10.3125 9.93467C10.5611 9.93467 10.7996 10.0444 10.9754 10.2398C11.1512 10.4351 11.25 10.7001 11.25 10.9763C11.25 11.2526 11.1512 11.5176 10.9754 11.7129C10.7996 11.9083 10.5611 12.018 10.3125 12.018Z" fill="#464255"/>
</svg>
