<svg width="20" height="20" viewBox="0 0 20 20" fill="none" xmlns="http://www.w3.org/2000/svg">
<g clip-path="url(#clip0_409_18961)">
<path d="M2 14.668C2.00106 15.5517 2.35259 16.3989 2.97748 17.0238C3.60237 17.6487 4.4496 18.0002 5.33333 18.0013H14.6667C15.5504 18.0002 16.3976 17.6487 17.0225 17.0238C17.6474 16.3989 17.9989 15.5517 18 14.668V8.66797H2V14.668ZM13.3333 11.668C13.5311 11.668 13.7245 11.7266 13.8889 11.8365C14.0534 11.9464 14.1815 12.1026 14.2572 12.2853C14.3329 12.468 14.3527 12.6691 14.3141 12.8631C14.2755 13.057 14.1803 13.2352 14.0404 13.3751C13.9006 13.5149 13.7224 13.6102 13.5284 13.6488C13.3344 13.6873 13.1334 13.6675 12.9507 13.5918C12.7679 13.5162 12.6117 13.388 12.5019 13.2235C12.392 13.0591 12.3333 12.8657 12.3333 12.668C12.3333 12.4028 12.4387 12.1484 12.6262 11.9609C12.8138 11.7733 13.0681 11.668 13.3333 11.668ZM10 11.668C10.1978 11.668 10.3911 11.7266 10.5556 11.8365C10.72 11.9464 10.8482 12.1026 10.9239 12.2853C10.9996 12.468 11.0194 12.6691 10.9808 12.8631C10.9422 13.057 10.847 13.2352 10.7071 13.3751C10.5673 13.5149 10.3891 13.6102 10.1951 13.6488C10.0011 13.6873 9.80004 13.6675 9.61732 13.5918C9.43459 13.5162 9.27841 13.388 9.16853 13.2235C9.05865 13.0591 9 12.8657 9 12.668C9 12.4028 9.10536 12.1484 9.29289 11.9609C9.48043 11.7733 9.73478 11.668 10 11.668ZM6.66667 11.668C6.86445 11.668 7.05779 11.7266 7.22224 11.8365C7.38669 11.9464 7.51486 12.1026 7.59055 12.2853C7.66623 12.468 7.68604 12.6691 7.64745 12.8631C7.60887 13.057 7.51363 13.2352 7.37377 13.3751C7.23392 13.5149 7.05574 13.6102 6.86176 13.6488C6.66778 13.6873 6.46671 13.6675 6.28398 13.5918C6.10126 13.5162 5.94508 13.388 5.8352 13.2235C5.72532 13.0591 5.66667 12.8657 5.66667 12.668C5.66667 12.4028 5.77202 12.1484 5.95956 11.9609C6.1471 11.7733 6.40145 11.668 6.66667 11.668Z" fill="#858D9D"/>
<path d="M14.6667 3.33333H14V2.66667C14 2.48986 13.9298 2.32029 13.8047 2.19526C13.6797 2.07024 13.5101 2 13.3333 2C13.1565 2 12.987 2.07024 12.8619 2.19526C12.7369 2.32029 12.6667 2.48986 12.6667 2.66667V3.33333H7.33333V2.66667C7.33333 2.48986 7.2631 2.32029 7.13807 2.19526C7.01305 2.07024 6.84348 2 6.66667 2C6.48986 2 6.32029 2.07024 6.19526 2.19526C6.07024 2.32029 6 2.48986 6 2.66667V3.33333H5.33333C4.4496 3.33439 3.60237 3.68592 2.97748 4.31081C2.35259 4.93571 2.00106 5.78294 2 6.66667L2 7.33333H18V6.66667C17.9989 5.78294 17.6474 4.93571 17.0225 4.31081C16.3976 3.68592 15.5504 3.33439 14.6667 3.33333Z" fill="#858D9D"/>
</g>
<defs>
<clipPath id="clip0_409_18961">
<rect width="16" height="16" fill="white" transform="translate(2 2)"/>
</clipPath>
</defs>
</svg>
