<svg width="60" height="46" viewBox="0 0 60 46" fill="none" xmlns="http://www.w3.org/2000/svg">
<path d="M23.973 0.318359L0.65625 9.89221L23.973 19.4661L47.2897 9.89221L23.973 0.318359Z" fill="#00B074"/>
<path d="M14.5058 4.22461L10.1172 5.9862L33.4339 15.5983L37.7843 13.7985L14.5058 4.22461Z" fill="#F7C604"/>
<path d="M0.65625 9.89258V36.2781L23.973 45.8519V19.4664L0.65625 9.89258Z" fill="#0A5239"/>
<path d="M47.2933 9.89258V36.2781L23.9766 45.8519V19.4664L47.2933 9.89258Z" fill="#00D68D"/>
<path opacity="0.1" d="M47.2871 23.3723C46.6002 23.2192 45.9133 23.1426 45.1882 23.1426C39.5403 23.1426 34.9609 27.738 34.9609 33.4057C34.9609 36.0481 35.9531 38.4607 37.5941 40.2606L47.2871 36.2779V23.3723Z" fill="#0C1E5B"/>
<path d="M33.4375 15.5977V26.6651L37.7879 24.8652V13.7979L33.4375 15.5977Z" fill="#F7C604"/>
<path d="M49.3523 42.9033C55.0007 42.9033 59.5796 38.3083 59.5796 32.6401C59.5796 26.9719 55.0007 22.377 49.3523 22.377C43.7039 22.377 39.125 26.9719 39.125 32.6401C39.125 38.3083 43.7039 42.9033 49.3523 42.9033Z" fill="#FF5B5B"/>
<path d="M48.2792 36.6222C47.9739 36.6222 47.7068 36.5073 47.4778 36.2775L44.2341 33.0224C43.7761 32.5629 43.7761 31.8353 44.2341 31.414C44.692 30.9545 45.4171 30.9545 45.8369 31.414L48.2792 33.8649L52.8586 29.2695C53.3165 28.8099 54.0416 28.8099 54.4614 29.2695C54.9193 29.729 54.9193 30.4566 54.4614 30.8779L49.0806 36.2775C48.8516 36.5073 48.5845 36.6222 48.2792 36.6222Z" fill="white"/>
<path d="M8.2128 32.716L5.69414 27.5078L3.32812 30.6097L4.62562 31.1842V34.5542L6.7245 35.5116V32.1033L8.2128 32.716Z" fill="#F2F5F3"/>
</svg>
