<svg width="24" height="20" viewBox="0 0 24 20" fill="none" xmlns="http://www.w3.org/2000/svg">
<path d="M10.1174 14.0813C10.8982 14.8627 12.1645 14.8631 12.9458 14.0822C12.9461 14.0819 12.9464 14.0817 12.9467 14.0813L15.0874 11.9407C15.3343 11.6676 15.3131 11.246 15.04 10.9991C14.7857 10.7692 14.3985 10.7696 14.1447 11L12.1941 12.9513L12.1987 2.66669C12.1987 2.29847 11.9002 2 11.532 2C11.1639 2 10.8654 2.29847 10.8654 2.66666L10.8594 12.9387L8.91938 11C8.65888 10.7397 8.2367 10.7398 7.97638 11.0003C7.71607 11.2608 7.71623 11.683 7.97673 11.9433L10.1174 14.0813Z" fill="#2D9CDB"/>
<path d="M18.8646 12.668C18.4964 12.668 18.1979 12.9664 18.1979 13.3346V16.0013C18.1979 16.3695 17.8995 16.668 17.5313 16.668H5.53125C5.16306 16.668 4.86459 16.3695 4.86459 16.0013V13.3347C4.86459 12.9665 4.56612 12.668 4.19794 12.668C3.82972 12.668 3.53125 12.9665 3.53125 13.3347V16.0013C3.53125 17.1059 4.42669 18.0013 5.53125 18.0013H17.5312C18.6358 18.0013 19.5312 17.1059 19.5312 16.0013V13.3347C19.5312 12.9665 19.2328 12.668 18.8646 12.668Z" fill="#2D9CDB"/>
</svg>
