<svg width="19" height="18" viewBox="0 0 19 18" fill="none" xmlns="http://www.w3.org/2000/svg">
<g clip-path="url(#clip0_332_24017)">
<path d="M18.6296 4.15625L12.3161 10.4698C11.6121 11.1719 10.6584 11.5663 9.66406 11.5663C8.66975 11.5663 7.71603 11.1719 7.01206 10.4698L0.698562 4.15625C0.688063 4.27475 0.664062 4.382 0.664062 4.49975V13.4998C0.665253 14.4939 1.06072 15.4471 1.76373 16.1501C2.46673 16.8531 3.41987 17.2486 4.41406 17.2498H14.9141C15.9083 17.2486 16.8614 16.8531 17.5644 16.1501C18.2674 15.4471 18.6629 14.4939 18.6641 13.4998V4.49975C18.6641 4.382 18.6401 4.27475 18.6296 4.15625Z" fill="#667085"/>
<path d="M11.2523 9.4095L18.1028 2.55825C17.7709 2.00799 17.3028 1.55253 16.7437 1.2358C16.1846 0.919067 15.5533 0.751755 14.9108 0.75H4.41075C3.76817 0.751755 3.13688 0.919067 2.57777 1.2358C2.01866 1.55253 1.55061 2.00799 1.21875 2.55825L8.06925 9.4095C8.49193 9.83048 9.06419 10.0669 9.66075 10.0669C10.2573 10.0669 10.8296 9.83048 11.2523 9.4095Z" fill="#667085"/>
</g>
<defs>
<clipPath id="clip0_332_24017">
<rect width="18" height="18" fill="white" transform="translate(0.664062)"/>
</clipPath>
</defs>
</svg>
