<svg width="16" height="16" viewBox="0 0 16 16" fill="none" xmlns="http://www.w3.org/2000/svg">
<path d="M14.0026 2.66666H11.9359C11.617 1.11572 10.2527 0.002 8.66925 0H7.33591C5.7525 0.002 4.38819 1.11572 4.06925 2.66666H2.00259C1.63441 2.66666 1.33594 2.96513 1.33594 3.33331C1.33594 3.7015 1.63441 4 2.00259 4H2.66925V12.6667C2.67147 14.5067 4.16256 15.9978 6.00259 16H10.0026C11.8426 15.9978 13.3337 14.5067 13.3359 12.6667V4H14.0026C14.3708 4 14.6693 3.70153 14.6693 3.33334C14.6693 2.96516 14.3708 2.66666 14.0026 2.66666ZM7.33594 11.3333C7.33594 11.7015 7.03747 12 6.66928 12C6.30106 12 6.00259 11.7015 6.00259 11.3333V7.33334C6.00259 6.96516 6.30106 6.66669 6.66925 6.66669C7.03744 6.66669 7.33591 6.96516 7.33591 7.33334V11.3333H7.33594ZM10.0026 11.3333C10.0026 11.7015 9.70413 12 9.33594 12C8.96775 12 8.66928 11.7015 8.66928 11.3333V7.33334C8.66928 6.96516 8.96775 6.66669 9.33594 6.66669C9.70413 6.66669 10.0026 6.96516 10.0026 7.33334V11.3333ZM5.44994 2.66666C5.7335 1.86819 6.48863 1.33434 7.33594 1.33331H8.66928C9.51659 1.33434 10.2717 1.86819 10.5553 2.66666H5.44994Z" fill="#A3A9B6"/>
</svg>
