<svg width="19" height="18" viewBox="0 0 19 18" fill="none" xmlns="http://www.w3.org/2000/svg">
<g clip-path="url(#clip0_333_26366)">
<path d="M9.50138 0.0322266C7.51683 0.0344099 5.61418 0.823683 4.21083 2.2269C2.80747 3.63011 2.01801 5.53268 2.01562 7.51723C2.01562 9.44473 3.50813 12.4612 6.45188 16.4827C6.80232 16.9628 7.26117 17.3534 7.79108 17.6227C8.32099 17.8919 8.90698 18.0323 9.50138 18.0323C10.0958 18.0323 10.6818 17.8919 11.2117 17.6227C11.7416 17.3534 12.2004 16.9628 12.5509 16.4827C15.4946 12.4612 16.9871 9.44473 16.9871 7.51723C16.9847 5.53268 16.1953 3.63011 14.7919 2.2269C13.3886 0.823683 11.4859 0.0344099 9.50138 0.0322266ZM9.50138 10.5007C8.90803 10.5007 8.32801 10.3248 7.83466 9.99514C7.34132 9.66549 6.9568 9.19696 6.72974 8.64878C6.50267 8.1006 6.44326 7.4974 6.55902 6.91546C6.67477 6.33351 6.9605 5.79896 7.38005 5.37941C7.79961 4.95985 8.33416 4.67413 8.9161 4.55837C9.49805 4.44262 10.1012 4.50203 10.6494 4.72909C11.1976 4.95615 11.6661 5.34067 11.9958 5.83402C12.3254 6.32736 12.5014 6.90738 12.5014 7.50073C12.5014 8.29638 12.1853 9.05944 11.6227 9.62205C11.0601 10.1847 10.297 10.5007 9.50138 10.5007Z" fill="#667085"/>
</g>
<defs>
<clipPath id="clip0_333_26366">
<rect width="18" height="18" fill="white" transform="translate(0.5)"/>
</clipPath>
</defs>
</svg>
