<svg width="20" height="20" viewBox="0 0 20 20" fill="none" xmlns="http://www.w3.org/2000/svg">
<g clip-path="url(#clip0_409_18967)">
<path d="M2.66659 5.16715H4.49041C4.85037 6.49158 6.21583 7.27344 7.54026 6.91348C8.39089 6.68228 9.05539 6.01779 9.28659 5.16715H17.3318C17.6999 5.16715 17.9984 4.86871 17.9984 4.50056C17.9984 4.13241 17.6999 3.83397 17.3318 3.83397H9.28659C8.92662 2.50951 7.56116 1.72765 6.23673 2.08762C5.3861 2.31881 4.7216 2.98331 4.49041 3.83394H2.66659C2.29844 3.83394 2 4.13238 2 4.50053C2 4.86868 2.29844 5.16715 2.66659 5.16715Z" fill="#858D9D"/>
<path d="M17.3318 9.3346H15.508C15.1487 8.01036 13.784 7.22806 12.4598 7.58727C11.6084 7.81822 10.9434 8.48325 10.7124 9.3346H2.66659C2.29844 9.3346 2 9.63304 2 10.0012C2 10.3693 2.29844 10.6678 2.66659 10.6678H10.7124C11.0717 11.992 12.4364 12.7743 13.7606 12.4151C14.612 12.1842 15.277 11.5191 15.508 10.6678H17.3318C17.6999 10.6678 17.9984 10.3693 17.9984 10.0012C17.9984 9.63304 17.6999 9.3346 17.3318 9.3346Z" fill="#858D9D"/>
<path d="M17.3318 14.8339H9.28659C8.92662 13.5095 7.56116 12.7277 6.23673 13.0876C5.3861 13.3188 4.7216 13.9833 4.49041 14.8339H2.66659C2.29844 14.8339 2 15.1324 2 15.5005C2 15.8687 2.29844 16.1671 2.66659 16.1671H4.49041C4.85037 17.4915 6.21583 18.2734 7.54026 17.9134C8.39089 17.6822 9.05539 17.0177 9.28659 16.1671H17.3318C17.6999 16.1671 17.9984 15.8687 17.9984 15.5005C17.9984 15.1324 17.6999 14.8339 17.3318 14.8339Z" fill="#858D9D"/>
</g>
<defs>
<clipPath id="clip0_409_18967">
<rect width="16" height="16" fill="white" transform="translate(2 2)"/>
</clipPath>
</defs>
</svg>
