<svg width="15" height="18" viewBox="0 0 15 18" fill="none" xmlns="http://www.w3.org/2000/svg">
<path d="M0 6.74056V16.7406C0 16.9616 0.0877973 17.1735 0.244078 17.3298C0.400358 17.4861 0.61232 17.5739 0.833333 17.5739H5C5.22101 17.5739 5.43297 17.4861 5.58925 17.3298C5.74554 17.1735 5.83333 16.9616 5.83333 16.7406V10.9072H9.16667V16.7406C9.16667 16.9616 9.25446 17.1735 9.41074 17.3298C9.56702 17.4861 9.77899 17.5739 10 17.5739H14.1667C14.3877 17.5739 14.5996 17.4861 14.7559 17.3298C14.9122 17.1735 15 16.9616 15 16.7406V6.74056C15 6.61119 14.9699 6.4836 14.912 6.36788C14.8542 6.25217 14.7702 6.15152 14.6667 6.07389L8 1.07389C7.85575 0.965708 7.68031 0.907227 7.5 0.907227C7.31969 0.907227 7.14425 0.965708 7 1.07389L0.333333 6.07389C0.229837 6.15152 0.145834 6.25217 0.0879772 6.36788C0.0301208 6.4836 0 6.61119 0 6.74056ZM1.66667 7.15723L7.5 2.78223L13.3333 7.15723V15.9072H10.8333V10.0739C10.8333 9.85288 10.7455 9.64092 10.5893 9.48464C10.433 9.32836 10.221 9.24056 10 9.24056H5C4.77899 9.24056 4.56702 9.32836 4.41074 9.48464C4.25446 9.64092 4.16667 9.85288 4.16667 10.0739V15.9072H1.66667V7.15723Z" fill="#464255"/>
</svg>
