<svg width="19" height="18" viewBox="0 0 19 18" fill="none" xmlns="http://www.w3.org/2000/svg">
<g clip-path="url(#clip0_332_24032)">
<path d="M6.33594 0C5.34174 0.00119089 4.38861 0.396661 3.6856 1.09966C2.9826 1.80267 2.58713 2.7558 2.58594 3.75V17.25C2.58604 17.3864 2.62335 17.5202 2.69385 17.637C2.76435 17.7538 2.86536 17.8491 2.98602 17.9128C3.10667 17.9764 3.2424 18.006 3.3786 17.9982C3.51479 17.9904 3.64629 17.9457 3.75894 17.8688L5.33844 16.7895L6.91794 17.8688C7.04273 17.9542 7.19044 17.9999 7.34169 17.9999C7.49293 17.9999 7.64065 17.9542 7.76544 17.8688L9.34044 16.7895L10.9154 17.8688C11.0403 17.9544 11.1882 18.0002 11.3396 18.0002C11.491 18.0002 11.6388 17.9544 11.7637 17.8688L13.3387 16.7902L14.9137 17.868C15.0263 17.9447 15.1576 17.9893 15.2936 17.997C15.4297 18.0046 15.5652 17.9751 15.6857 17.9116C15.8062 17.8481 15.9071 17.7529 15.9777 17.6364C16.0482 17.5198 16.0856 17.3862 16.0859 17.25V3.75C16.0847 2.7558 15.6893 1.80267 14.9863 1.09966C14.2833 0.396661 13.3301 0.00119089 12.3359 0L6.33594 0ZM10.8359 10.5H6.33594C6.13703 10.5 5.94626 10.421 5.80561 10.2803C5.66496 10.1397 5.58594 9.94891 5.58594 9.75C5.58594 9.55109 5.66496 9.36032 5.80561 9.21967C5.94626 9.07902 6.13703 9 6.33594 9H10.8359C11.0349 9 11.2256 9.07902 11.3663 9.21967C11.5069 9.36032 11.5859 9.55109 11.5859 9.75C11.5859 9.94891 11.5069 10.1397 11.3663 10.2803C11.2256 10.421 11.0349 10.5 10.8359 10.5ZM13.0859 6.75C13.0859 6.94891 13.0069 7.13968 12.8663 7.28033C12.7256 7.42098 12.5349 7.5 12.3359 7.5H6.33594C6.13703 7.5 5.94626 7.42098 5.80561 7.28033C5.66496 7.13968 5.58594 6.94891 5.58594 6.75C5.58594 6.55109 5.66496 6.36032 5.80561 6.21967C5.94626 6.07902 6.13703 6 6.33594 6H12.3359C12.5349 6 12.7256 6.07902 12.8663 6.21967C13.0069 6.36032 13.0859 6.55109 13.0859 6.75Z" fill="#667085"/>
</g>
<defs>
<clipPath id="clip0_332_24032">
<rect width="18" height="18" fill="white" transform="translate(0.335938)"/>
</clipPath>
</defs>
</svg>
