<svg width="28" height="29" viewBox="0 0 28 29" fill="none" xmlns="http://www.w3.org/2000/svg">
<path d="M14.0026 14.181C14.6469 14.181 15.1693 13.6587 15.1693 13.0143C15.1693 12.37 14.6469 11.8477 14.0026 11.8477C13.3583 11.8477 12.8359 12.37 12.8359 13.0143C12.8359 13.6587 13.3583 14.181 14.0026 14.181Z" fill="#2D9CDB"/>
<path d="M9.33073 14.181C9.97506 14.181 10.4974 13.6587 10.4974 13.0143C10.4974 12.37 9.97506 11.8477 9.33073 11.8477C8.6864 11.8477 8.16406 12.37 8.16406 13.0143C8.16406 13.6587 8.6864 14.181 9.33073 14.181Z" fill="#2D9CDB"/>
<path d="M18.6667 14.181C19.311 14.181 19.8333 13.6587 19.8333 13.0143C19.8333 12.37 19.311 11.8477 18.6667 11.8477C18.0223 11.8477 17.5 12.37 17.5 13.0143C17.5 13.6587 18.0223 14.181 18.6667 14.181Z" fill="#2D9CDB"/>
<path d="M3.56102 25.6947C3.80521 25.7954 4.06688 25.847 4.33102 25.8464C4.59153 25.8477 4.84965 25.7967 5.09012 25.6965C5.33058 25.5963 5.54852 25.4489 5.73102 25.263L8.64769 22.3464H19.836C21.3831 22.3464 22.8668 21.7318 23.9608 20.6378C25.0548 19.5438 25.6694 18.0601 25.6694 16.513V9.51302C25.6694 7.96592 25.0548 6.48219 23.9608 5.38823C22.8668 4.29427 21.3831 3.67969 19.836 3.67969H8.16936C6.62226 3.67969 5.13853 4.29427 4.04457 5.38823C2.95061 6.48219 2.33602 7.96592 2.33602 9.51302V23.8514C2.33233 24.2459 2.44709 24.6325 2.66548 24.9611C2.88387 25.2897 3.19583 25.5453 3.56102 25.6947ZM4.66936 9.51302C4.66936 8.58476 5.03811 7.69452 5.69448 7.03815C6.35086 6.38177 7.2411 6.01302 8.16936 6.01302H19.836C20.7643 6.01302 21.6545 6.38177 22.3109 7.03815C22.9673 7.69452 23.336 8.58476 23.336 9.51302V16.513C23.336 17.4413 22.9673 18.3315 22.3109 18.9879C21.6545 19.6443 20.7643 20.013 19.836 20.013H8.16936C8.01582 20.0121 7.86361 20.0416 7.72147 20.0996C7.57932 20.1577 7.45004 20.2432 7.34102 20.3514L4.66936 23.0347V9.51302Z" fill="#2D9CDB"/>
</svg>
