<svg width="15" height="18" viewBox="0 0 15 18" fill="none" xmlns="http://www.w3.org/2000/svg">
<path d="M13.125 4.37717H1.875C1.52083 4.37717 1.25 4.07624 1.25 3.68273C1.25 3.28921 1.52083 2.98828 1.875 2.98828H13.125C13.4792 2.98828 13.75 3.28921 13.75 3.68273C13.75 4.07624 13.4792 4.37717 13.125 4.37717Z" fill="black"/>
<path d="M9.375 8.08029H1.875C1.52083 8.08029 1.25 7.77937 1.25 7.38585C1.25 6.99233 1.52083 6.69141 1.875 6.69141H9.375C9.72917 6.69141 10 6.99233 10 7.38585C10 7.77937 9.72917 8.08029 9.375 8.08029Z" fill="black"/>
<path d="M13.125 11.7834H1.875C1.52083 11.7834 1.25 11.4825 1.25 11.089C1.25 10.6955 1.52083 10.3945 1.875 10.3945H13.125C13.4792 10.3945 13.75 10.6955 13.75 11.089C13.75 11.4825 13.4792 11.7834 13.125 11.7834Z" fill="black"/>
<path d="M9.375 15.4865H1.875C1.52083 15.4865 1.25 15.1856 1.25 14.7921C1.25 14.3986 1.52083 14.0977 1.875 14.0977H9.375C9.72917 14.0977 10 14.3986 10 14.7921C10 15.1856 9.72917 15.4865 9.375 15.4865Z" fill="black"/>
</svg>
