<svg width="15" height="18" viewBox="0 0 15 18" fill="none" xmlns="http://www.w3.org/2000/svg">
<path d="M13.125 4.37912H1.875C1.52083 4.37912 1.25 4.0782 1.25 3.68468C1.25 3.29116 1.52083 2.99023 1.875 2.99023H13.125C13.4792 2.99023 13.75 3.29116 13.75 3.68468C13.75 4.0782 13.4792 4.37912 13.125 4.37912Z" fill="#464255"/>
<path d="M9.375 8.08225H1.875C1.52083 8.08225 1.25 7.78132 1.25 7.3878C1.25 6.99429 1.52083 6.69336 1.875 6.69336H9.375C9.72917 6.69336 10 6.99429 10 7.3878C10 7.78132 9.72917 8.08225 9.375 8.08225Z" fill="#464255"/>
<path d="M13.125 11.7873H1.875C1.52083 11.7873 1.25 11.4864 1.25 11.0929C1.25 10.6994 1.52083 10.3984 1.875 10.3984H13.125C13.4792 10.3984 13.75 10.6994 13.75 11.0929C13.75 11.4864 13.4792 11.7873 13.125 11.7873Z" fill="#464255"/>
<path d="M9.375 15.4905H1.875C1.52083 15.4905 1.25 15.1895 1.25 14.796C1.25 14.4025 1.52083 14.1016 1.875 14.1016H9.375C9.72917 14.1016 10 14.4025 10 14.796C10 15.1895 9.72917 15.4905 9.375 15.4905Z" fill="#464255"/>
</svg>
