<svg width="33" height="32" viewBox="0 0 33 32" fill="none" xmlns="http://www.w3.org/2000/svg">
<path opacity="0.2" d="M4.46563 9.32422C4.37505 9.47979 4.32759 9.6567 4.32813 9.83672V22.1617C4.32909 22.3397 4.37697 22.5144 4.46695 22.668C4.55692 22.8216 4.68582 22.9488 4.84063 23.0367L15.8406 29.2242C15.9889 29.309 16.1573 29.3521 16.3281 29.3492L16.4406 15.9992L4.46563 9.32422Z" fill="#2DB324"/>
<path d="M28.3281 22.1627V9.83766C28.3272 9.65963 28.2793 9.485 28.1893 9.33137C28.0993 9.17775 27.9704 9.05057 27.8156 8.96266L16.8156 2.77516C16.6674 2.68958 16.4993 2.64453 16.3281 2.64453C16.157 2.64453 15.9888 2.68958 15.8406 2.77516L4.84062 8.96266C4.68581 9.05057 4.55692 9.17775 4.46694 9.33137C4.37696 9.485 4.32908 9.65963 4.32812 9.83766V22.1627C4.32908 22.3407 4.37696 22.5153 4.46694 22.6689C4.55692 22.8226 4.68581 22.9497 4.84062 23.0377L15.8406 29.2252C15.9888 29.3107 16.157 29.3558 16.3281 29.3558C16.4993 29.3558 16.6674 29.3107 16.8156 29.2252L27.8156 23.0377C27.9704 22.9497 28.0993 22.8226 28.1893 22.6689C28.2793 22.5153 28.3272 22.3407 28.3281 22.1627V22.1627Z" stroke="#2DB324" stroke-width="2" stroke-linecap="round" stroke-linejoin="round"/>
<path d="M22.4531 19.0625V12.5625L10.3281 5.875" stroke="#2DB324" stroke-width="2" stroke-linecap="round" stroke-linejoin="round"/>
<path d="M28.1937 9.32422L16.4437 15.9992L4.46875 9.32422" stroke="#2DB324" stroke-width="2" stroke-linecap="round" stroke-linejoin="round"/>
<path d="M16.4406 16L16.3281 29.35" stroke="#2DB324" stroke-width="2" stroke-linecap="round" stroke-linejoin="round"/>
</svg>
