<svg width="19" height="18" viewBox="0 0 19 18" fill="none" xmlns="http://www.w3.org/2000/svg">
<g clip-path="url(#clip0_332_24023)">
<path d="M11.9141 0H7.41406C6.41987 0.00119089 5.46673 0.396661 4.76373 1.09966C4.06072 1.80267 3.66525 2.7558 3.66406 3.75V12H15.6641V3.75C15.6629 2.7558 15.2674 1.80267 14.5644 1.09966C13.8614 0.396661 12.9083 0.00119089 11.9141 0V0Z" fill="#667085"/>
<path d="M3.66406 14.25C3.66525 15.2442 4.06072 16.1973 4.76373 16.9003C5.46673 17.6033 6.41987 17.9988 7.41406 18H11.9141C12.9083 17.9988 13.8614 17.6033 14.5644 16.9003C15.2674 16.1973 15.6629 15.2442 15.6641 14.25V13.5H3.66406V14.25ZM9.66406 15C9.8124 15 9.9574 15.044 10.0807 15.1264C10.2041 15.2088 10.3002 15.3259 10.357 15.463C10.4137 15.6 10.4286 15.7508 10.3997 15.8963C10.3707 16.0418 10.2993 16.1754 10.1944 16.2803C10.0895 16.3852 9.95587 16.4567 9.81038 16.4856C9.66489 16.5145 9.51409 16.4997 9.37705 16.4429C9.24001 16.3861 9.12287 16.29 9.04046 16.1667C8.95805 16.0433 8.91406 15.8983 8.91406 15.75C8.91406 15.5511 8.99308 15.3603 9.13373 15.2197C9.27438 15.079 9.46515 15 9.66406 15Z" fill="#667085"/>
</g>
<defs>
<clipPath id="clip0_332_24023">
<rect width="18" height="18" fill="white" transform="translate(0.664062)"/>
</clipPath>
</defs>
</svg>
