<svg width="60" height="54" viewBox="0 0 60 54" fill="none" xmlns="http://www.w3.org/2000/svg">
<path d="M29.7193 11.4201C29.1256 11.4201 28.6591 10.9519 28.6591 10.3561V7.67499C28.6591 4.78106 26.3266 2.44039 23.4852 2.44039C22.0857 2.44039 20.8134 2.99364 19.7956 3.97246C18.7778 4.95129 18.2689 6.27058 18.2689 7.67499V10.3561C18.2689 10.9519 17.8024 11.4201 17.2087 11.4201C16.6149 11.4201 16.1484 10.9519 16.1484 10.3561V7.67499C16.1484 5.71733 16.9118 3.88735 18.2689 2.48294C19.6684 1.07854 21.492 0.3125 23.4428 0.3125C27.4716 0.3125 30.7371 3.58944 30.7371 7.63243V10.3136C30.7795 10.9519 30.313 11.4201 29.7193 11.4201Z" fill="#FFD497"/>
<path d="M46.3836 47.2968H15.4674L10.3359 7.54785H44.2207L46.3836 47.2968Z" fill="#00B074"/>
<path d="M15.4659 47.2968L8.12918 46.02L0.75 47.2968L2.95527 7.54785H13.2607L15.4659 47.2968Z" fill="#0A5239"/>
<path d="M28.9115 21.2511C24.8827 21.2511 21.6172 17.9742 21.6172 13.9312V11.2501C21.6172 10.6542 22.0837 10.1861 22.6774 10.1861C23.2711 10.1861 23.7376 10.6542 23.7376 11.2501V13.9312C23.7376 16.8251 26.0701 19.1232 28.9115 19.1232C31.7529 19.1232 34.1278 16.7826 34.1278 13.8886V11.2075C34.1278 10.6117 34.5943 10.1436 35.1881 10.1436C35.7818 10.1436 36.2483 10.6117 36.2483 11.2075V13.8886C36.2483 17.9742 32.9828 21.2511 28.9115 21.2511Z" fill="white"/>
<path opacity="0.1" d="M30.8203 41.8488C30.8203 43.8065 31.3292 45.679 32.2198 47.2962H46.4268L45.5362 30.9541C44.476 30.6136 43.3734 30.4434 42.2283 30.4434C35.9094 30.4434 30.8203 35.5503 30.8203 41.8488Z" fill="#0C1E5B"/>
<path d="M48.1234 53.2543C54.4005 53.2543 59.489 48.1479 59.489 41.8488C59.489 35.5498 54.4005 30.4434 48.1234 30.4434C41.8464 30.4434 36.7578 35.5498 36.7578 41.8488C36.7578 48.1479 41.8464 53.2543 48.1234 53.2543Z" fill="#FF6966"/>
<path d="M46.9317 46.2748C46.5925 46.2748 46.2956 46.1471 46.0411 45.8918L42.4364 42.2744C41.9275 41.7637 41.9275 40.9551 42.4364 40.487C42.9453 39.9763 43.7511 39.9763 44.2176 40.487L46.9317 43.2106L52.0208 38.1037C52.5297 37.593 53.3355 37.593 53.802 38.1037C54.3109 38.6144 54.3109 39.423 53.802 39.8911L47.8223 45.8918C47.5679 46.1471 47.2286 46.2748 46.9317 46.2748Z" fill="white"/>
</svg>
