<svg width="33" height="32" viewBox="0 0 33 32" fill="none" xmlns="http://www.w3.org/2000/svg">
<path opacity="0.2" d="M9.4037 13.9258L5.4787 18.6258C5.37982 18.7411 5.31005 18.8785 5.27525 19.0264C5.24045 19.1743 5.24164 19.3284 5.2787 19.4758L6.8162 26.4383C6.8533 26.6038 6.93189 26.7571 7.04457 26.8839C7.15724 27.0107 7.30031 27.1067 7.46032 27.1629C7.62033 27.2192 7.79201 27.2338 7.95923 27.2054C8.12644 27.1771 8.2837 27.1067 8.4162 27.0008L12.1662 24.0008C9.9662 20.1758 9.2537 16.8133 9.4037 13.9258Z" fill="#2DA5F3"/>
<path opacity="0.2" d="M22.8484 13.8379L26.7734 18.5504C26.8723 18.6658 26.9421 18.8031 26.9769 18.9511C27.0117 19.099 27.0105 19.253 26.9734 19.4004L25.4359 26.3504C25.4005 26.5169 25.3231 26.6717 25.2111 26.8C25.0992 26.9282 24.9563 27.0258 24.796 27.0834C24.6358 27.141 24.4635 27.1567 24.2955 27.129C24.1275 27.1014 23.9693 27.0313 23.8359 26.9254L20.0859 23.9254C22.2859 20.0879 22.9984 16.7254 22.8484 13.8379Z" fill="#2DA5F3"/>
<path d="M18.1641 28H14.1641" stroke="#2DA5F3" stroke-width="2" stroke-linecap="round" stroke-linejoin="round"/>
<path d="M15.539 2.47472C13.164 4.37472 5.22649 11.9747 12.164 23.9997H20.164C26.964 11.9747 19.139 4.38722 16.789 2.47472C16.6137 2.32827 16.3924 2.24805 16.164 2.24805C15.9355 2.24805 15.7143 2.32827 15.539 2.47472Z" stroke="#2DA5F3" stroke-width="2" stroke-linecap="round" stroke-linejoin="round"/>
<path d="M9.4037 13.9258L5.4787 18.6258C5.37982 18.7411 5.31005 18.8785 5.27525 19.0264C5.24045 19.1743 5.24164 19.3284 5.2787 19.4758L6.8162 26.4383C6.8533 26.6038 6.93189 26.7571 7.04457 26.8839C7.15724 27.0107 7.30031 27.1067 7.46032 27.1629C7.62033 27.2192 7.79201 27.2338 7.95923 27.2054C8.12644 27.1771 8.2837 27.1067 8.4162 27.0008L12.1662 24.0008" stroke="#2DA5F3" stroke-width="2" stroke-linecap="round" stroke-linejoin="round"/>
<path d="M22.8516 13.8242L26.8516 18.6242C26.9504 18.7396 27.0202 18.877 27.055 19.0249C27.0898 19.1728 27.0886 19.3269 27.0516 19.4742L25.5141 26.4367C25.477 26.6022 25.3984 26.7556 25.2857 26.8823C25.173 27.0091 25.03 27.1051 24.8699 27.1614C24.7099 27.2176 24.5383 27.2323 24.371 27.2039C24.2038 27.1755 24.0466 27.1051 23.9141 26.9992L20.1641 23.9992" stroke="#2DA5F3" stroke-width="2" stroke-linecap="round" stroke-linejoin="round"/>
<path d="M16.1641 13.5C16.9925 13.5 17.6641 12.8284 17.6641 12C17.6641 11.1716 16.9925 10.5 16.1641 10.5C15.3356 10.5 14.6641 11.1716 14.6641 12C14.6641 12.8284 15.3356 13.5 16.1641 13.5Z" fill="#2DA5F3"/>
</svg>
