<svg width="28" height="29" viewBox="0 0 28 29" fill="none" xmlns="http://www.w3.org/2000/svg">
<path d="M14 9.80566C13.1347 9.80566 12.2888 10.0623 11.5694 10.543C10.8499 11.0237 10.2892 11.707 9.95803 12.5064C9.6269 13.3058 9.54026 14.1855 9.70907 15.0342C9.87788 15.8828 10.2946 16.6624 10.9064 17.2742C11.5183 17.8861 12.2978 18.3028 13.1465 18.4716C13.9951 18.6404 14.8748 18.5538 15.6742 18.2226C16.4737 17.8915 17.1569 17.3307 17.6377 16.6113C18.1184 15.8918 18.375 15.0459 18.375 14.1807C18.3736 13.0208 17.9122 11.9088 17.0921 11.0886C16.2719 10.2684 15.1599 9.80703 14 9.80566ZM14 16.8057C13.4808 16.8057 12.9733 16.6517 12.5416 16.3633C12.1099 16.0748 11.7735 15.6649 11.5748 15.1852C11.3761 14.7055 11.3242 14.1777 11.4254 13.6685C11.5267 13.1593 11.7767 12.6916 12.1438 12.3245C12.511 11.9574 12.9787 11.7074 13.4879 11.6061C13.9971 11.5048 14.5249 11.5568 15.0045 11.7555C15.4842 11.9542 15.8942 12.2906 16.1826 12.7223C16.471 13.154 16.625 13.6615 16.625 14.1807C16.6242 14.8766 16.3474 15.5438 15.8553 16.036C15.3632 16.5281 14.696 16.8049 14 16.8057Z" fill="#FF5B5B"/>
<path d="M5.48638 8.74061C5.05612 8.57896 4.57986 8.59102 4.15833 8.77424C3.73681 8.95746 3.40309 9.29747 3.22777 9.72234C3.05245 10.1472 3.04928 10.6236 3.21892 11.0508C3.38857 11.4779 3.71773 11.8224 4.13678 12.0112C4.56308 12.1915 4.92681 12.4934 5.18253 12.8792C5.43825 13.265 5.57463 13.7177 5.57463 14.1805C5.57463 14.6434 5.43825 15.096 5.18253 15.4818C4.92681 15.8676 4.56308 16.1696 4.13678 16.3499C3.71763 16.5387 3.38839 16.8832 3.21872 17.3104C3.04905 17.7377 3.05226 18.2142 3.22768 18.6391C3.40309 19.064 3.73695 19.4041 4.1586 19.5872C4.58025 19.7704 5.05662 19.7823 5.4869 19.6204C5.91628 19.4456 6.38771 19.4013 6.84213 19.4932C7.29656 19.585 7.71378 19.8089 8.04153 20.1368C8.36927 20.4647 8.59298 20.8821 8.68461 21.3365C8.77625 21.791 8.73174 22.2624 8.55667 22.6917C8.38978 23.1231 8.40014 23.603 8.58549 24.0268C8.77083 24.4506 9.11615 24.784 9.54621 24.9544C9.76157 25.0435 9.99238 25.0894 10.2255 25.0894C10.566 25.0918 10.8996 24.9936 11.1846 24.8071C11.4695 24.6207 11.6931 24.3543 11.8272 24.0413C12.0076 23.615 12.3095 23.2513 12.6953 22.9955C13.0811 22.7398 13.5337 22.6034 13.9966 22.6034C14.4595 22.6034 14.9121 22.7398 15.2979 22.9955C15.6837 23.2513 15.9856 23.615 16.1659 24.0413C16.3547 24.4604 16.6992 24.7897 17.1265 24.9594C17.5537 25.129 18.0302 25.1258 18.4552 24.9504C18.8801 24.775 19.2201 24.4411 19.4033 24.0195C19.5864 23.5978 19.5983 23.1215 19.4365 22.6912C19.2616 22.2618 19.2174 21.7904 19.3092 21.3359C19.4011 20.8815 19.625 20.4643 19.9529 20.1365C20.2808 19.8088 20.6981 19.5851 21.1526 19.4935C21.6071 19.4018 22.0785 19.4463 22.5078 19.6214C22.9365 19.7879 23.4135 19.7789 23.8356 19.5966C24.2578 19.4142 24.5913 19.0731 24.764 18.6468L23.9617 18.2982L23.1654 18C22.4176 17.6945 21.5961 17.6169 20.8043 17.777C20.0124 17.9371 19.2856 18.3277 18.7152 18.8998C18.1453 19.4744 17.7537 20.2015 17.5876 20.9936C17.4216 21.7857 17.4882 22.609 17.7795 23.364C17.4674 22.6188 16.9417 21.9827 16.2685 21.5358C15.5954 21.089 14.8051 20.8514 13.9972 20.8531C13.1875 20.8556 12.3958 21.0927 11.7181 21.5357C11.0404 21.9788 10.5055 22.6088 10.1784 23.3494C10.4837 22.6016 10.5612 21.7801 10.4011 20.9884C10.241 20.1966 9.85051 19.4698 9.27863 18.8993C8.70401 18.3294 7.97685 17.9378 7.18476 17.7718C6.39268 17.6058 5.56948 17.6724 4.81438 17.9635C5.55957 17.6513 6.19564 17.1255 6.64241 16.4523C7.08917 15.7791 7.32663 14.9887 7.32484 14.1807C7.32233 13.371 7.08521 12.5794 6.64216 11.9017C6.19911 11.2239 5.56914 10.6891 4.82847 10.362C5.57631 10.6675 6.39778 10.7451 7.18959 10.585C7.98141 10.4249 8.70822 10.0343 9.27863 9.46222C9.8486 8.88766 10.2402 8.16049 10.4062 7.36838C10.5723 6.57628 10.5056 5.75306 10.2144 4.99797C10.5266 5.74316 11.0524 6.37924 11.7256 6.826C12.3988 7.27277 13.1892 7.51022 13.9972 7.50844C14.8069 7.50593 15.5985 7.2688 16.2762 6.82575C16.954 6.38271 17.4888 5.75273 17.8159 5.01206C17.5106 5.75993 17.4331 6.58136 17.5932 7.37313C17.7533 8.16491 18.1438 8.89171 18.7157 9.46222C19.2904 10.0319 20.0176 10.4233 20.8096 10.5893C21.6017 10.7553 22.4248 10.6889 23.1799 10.3979C22.4383 10.7095 21.8048 11.2324 21.3584 11.9016C20.912 12.5707 20.6724 13.3564 20.6695 14.1608C20.6666 14.9652 20.9005 15.7526 21.3421 16.425C21.7836 17.0973 22.4133 17.6248 23.1526 17.9418C23.155 17.949 23.155 17.9568 23.1526 17.964L23.9614 18.2977L24.7654 18.6425L24.7702 18.6313C24.9488 18.2076 24.9531 17.7305 24.7823 17.3036C24.6115 16.8766 24.2792 16.5343 23.8575 16.3507C23.4312 16.1704 23.0675 15.8685 22.8118 15.4827C22.5561 15.0969 22.4197 14.6443 22.4197 14.1814C22.4197 13.7185 22.5561 13.2659 22.8118 12.8801C23.0675 12.4943 23.4312 12.1924 23.8575 12.0121C24.2767 11.8232 24.6059 11.4788 24.7756 11.0515C24.9453 10.6242 24.942 10.1477 24.7666 9.72281C24.5912 9.29788 24.2574 8.95787 23.8357 8.77472C23.4141 8.59157 22.9377 8.57965 22.5074 8.74149C22.078 8.91635 21.6066 8.96063 21.1522 8.86877C20.6977 8.77692 20.2805 8.55301 19.9528 8.22511C19.625 7.8972 19.4013 7.47987 19.3097 7.0254C19.2181 6.57093 19.2626 6.09953 19.4376 5.67024C19.5994 5.23997 19.5874 4.76364 19.4043 4.34204C19.2211 3.92044 18.8811 3.58664 18.4562 3.41127C18.0313 3.23589 17.5548 3.2327 17.1276 3.40237C16.7004 3.57204 16.356 3.90126 16.1672 4.32037C15.9868 4.74668 15.6849 5.11041 15.2991 5.36613C14.9133 5.62185 14.4607 5.75823 13.9978 5.75823C13.5349 5.75823 13.0823 5.62185 12.6965 5.36613C12.3107 5.11041 12.0088 4.74668 11.8285 4.32037C11.6396 3.90123 11.2952 3.57198 10.8679 3.40231C10.4407 3.23264 9.96415 3.23585 9.53922 3.41127C9.11429 3.58668 8.77428 3.92054 8.59113 4.34219C8.40798 4.76384 8.39606 5.24021 8.55789 5.6705C8.73276 6.09987 8.77704 6.5713 8.68518 7.02573C8.59333 7.48015 8.36942 7.89737 8.04151 8.22512C7.71361 8.55287 7.29628 8.77657 6.84181 8.86821C6.38734 8.95984 5.91593 8.91533 5.48664 8.74026L5.48638 8.74061Z" fill="#FF5B5B"/>
</svg>
