<svg width="11" height="15" viewBox="0 0 11 15" fill="none" xmlns="http://www.w3.org/2000/svg">
<path d="M5.90625 0.462565C5.79304 0.354992 5.64897 0.295886 5.5 0.295898H1.125C0.95924 0.295898 0.800269 0.369063 0.683058 0.499297C0.565848 0.62953 0.5 0.806165 0.5 0.990343V13.4903C0.5 13.6745 0.565848 13.8512 0.683058 13.9814C0.800269 14.1116 0.95924 14.1848 1.125 14.1848H9.875C10.0408 14.1848 10.1997 14.1116 10.3169 13.9814C10.4342 13.8512 10.5 13.6745 10.5 13.4903V5.15701C10.5 5.0567 10.4805 4.95759 10.4427 4.86648C10.4049 4.77537 10.3499 4.69443 10.2812 4.62923L5.90625 0.462565ZM6.125 2.49729L8.1875 4.46257H6.125V2.49729ZM9.25 12.7959H1.75V1.68479H4.875V5.15701C4.875 5.34119 4.94085 5.51782 5.05806 5.64806C5.17527 5.77829 5.33424 5.85146 5.5 5.85146H9.25V12.7959Z" fill="#464255"/>
</svg>
