<svg width="15" height="18" viewBox="0 0 15 18" fill="none" xmlns="http://www.w3.org/2000/svg">
<path d="M7.90625 2.46354C7.79304 2.35597 7.64897 2.29686 7.5 2.29688H3.125C2.95924 2.29688 2.80027 2.37004 2.68306 2.50027C2.56585 2.63051 2.5 2.80714 2.5 2.99132V15.4913C2.5 15.6755 2.56585 15.8521 2.68306 15.9824C2.80027 16.1126 2.95924 16.1858 3.125 16.1858H11.875C12.0408 16.1858 12.1997 16.1126 12.3169 15.9824C12.4342 15.8521 12.5 15.6755 12.5 15.4913V7.15799C12.5 7.05768 12.4805 6.95856 12.4427 6.86746C12.4049 6.77635 12.3499 6.69541 12.2812 6.63021L7.90625 2.46354ZM8.125 4.49826L10.1875 6.46354H8.125V4.49826ZM11.25 14.7969H3.75V3.68576H6.875V7.15799C6.875 7.34217 6.94085 7.5188 7.05806 7.64903C7.17527 7.77927 7.33424 7.85243 7.5 7.85243H11.25V14.7969Z" fill="#464255"/>
</svg>
