<svg width="15" height="17" viewBox="0 0 15 17" fill="none" xmlns="http://www.w3.org/2000/svg">
<g clip-path="url(#clip0_409_23051)">
<path d="M13.1241 15.0985V16.8346H11.8741V15.0985C11.8741 14.1408 11.1734 13.3624 10.3116 13.3624H4.68656C3.82531 13.3624 3.12406 14.1408 3.12406 15.0985V16.8346H1.87406V15.0985C1.87406 13.3755 3.13594 11.9735 4.68656 11.9735H10.3116C11.8622 11.9735 13.1241 13.3755 13.1241 15.0985ZM8.01406 4.40055C8.79844 4.60124 9.43781 5.3061 9.62344 6.17624C9.74906 6.76443 9.68031 7.32832 9.47469 7.8068H10.2909C10.6041 7.8068 10.8778 7.55124 10.9141 7.20541C10.9566 6.79777 10.9409 6.37068 10.8572 5.93388C10.5797 4.49013 9.52531 3.32555 8.22406 3.02832C6.01344 2.52346 4.06219 4.39638 4.06219 6.76513C4.06219 7.78527 4.42406 8.71305 5.01219 9.39846C5.03719 8.80957 5.22844 8.2686 5.53469 7.8318C5.39219 7.50957 5.31219 7.14707 5.31219 6.76443C5.31219 5.23735 6.58594 4.03457 8.01469 4.39985L8.01406 4.40055ZM4.29344 2.96513C5.24906 1.96999 6.50031 1.47832 7.81219 1.5686C10.2647 1.74499 12.1866 4.11652 12.1866 6.96721C12.1866 8.19638 11.2872 9.19568 10.1809 9.19568H8.68281C8.53094 8.6186 8.05156 8.19638 7.48281 8.19638C6.79219 8.19638 6.23281 8.81791 6.23281 9.58527C6.23281 10.3526 6.79219 10.9742 7.48281 10.9742C7.81969 10.9742 8.12594 10.8255 8.35031 10.5846H10.1803C11.9753 10.5846 13.4359 8.96166 13.4359 6.96721C13.4366 3.38596 11.0016 0.405406 7.89281 0.182489C6.22781 0.0623505 4.64844 0.690823 3.43906 1.95193C2.32219 3.11513 1.65094 4.72693 1.57031 6.4186H2.82219C2.89906 5.09707 3.41469 3.8811 4.29406 2.96513H4.29344Z" fill="#464255"/>
</g>
<defs>
<clipPath id="clip0_409_23051">
<rect width="15" height="16.6667" fill="white" transform="translate(0 0.167969)"/>
</clipPath>
</defs>
</svg>
