<svg width="60" height="44" viewBox="0 0 60 44" fill="none" xmlns="http://www.w3.org/2000/svg">
<path d="M6.65625 43.556C9.82313 43.556 12.4107 40.9561 12.4107 37.7742V0.522461H46.0105V37.7742C46.0105 40.9561 43.4229 43.556 40.256 43.556" fill="#00B074"/>
<path d="M34.4982 37.7745V33.3896H0.898438V37.7745C0.898438 40.9564 3.48601 43.5563 6.65289 43.5563H40.2527C37.0858 43.5563 34.4982 40.9564 34.4982 37.7745Z" fill="#0A5239"/>
<path d="M22.7166 7.93359H18.4297V9.79618H22.7166V7.93359Z" fill="white"/>
<path d="M39.2086 7.93359H26.0391V9.79618H39.2086V7.93359Z" fill="#F7C604"/>
<path d="M22.7166 14.5303H18.4297V16.3929H22.7166V14.5303Z" fill="white"/>
<path d="M39.2086 14.5303H26.0391V16.3929H39.2086V14.5303Z" fill="#F7C604"/>
<path d="M22.7166 21.127H18.4297V22.9895H22.7166V21.127Z" fill="white"/>
<path d="M39.2086 21.127H26.0391V22.9895H39.2086V21.127Z" fill="#F7C604"/>
<path d="M22.7166 27.7236H18.4297V29.5862H22.7166V27.7236Z" fill="white"/>
<path d="M39.2086 27.7236H26.0391V29.5862H39.2086V27.7236Z" fill="#F7C604"/>
<path opacity="0.1" d="M46.0043 28.0342V5.87715C45.5409 5.79955 45.0388 5.76074 44.5367 5.76074C38.3961 5.76074 33.4141 10.7664 33.4141 16.9363C33.4141 23.1061 38.3961 28.1118 44.5367 28.1118C45.0388 28.1506 45.5409 28.1118 46.0043 28.0342Z" fill="#0C1E5B"/>
<path d="M48.4431 25.9001C54.5861 25.9001 59.5659 20.8966 59.5659 14.7245C59.5659 8.55233 54.5861 3.54883 48.4431 3.54883C42.3002 3.54883 37.3203 8.55233 37.3203 14.7245C37.3203 20.8966 42.3002 25.9001 48.4431 25.9001Z" fill="#FF5B5B"/>
<path d="M50.4092 15.5006V8.55469H46.4699V15.5006H43.8438L48.4396 20.8943L53.0354 15.5006H50.4092Z" fill="white"/>
</svg>
