<svg width="20" height="22" viewBox="0 0 20 22" fill="none" xmlns="http://www.w3.org/2000/svg">
<path d="M16.9369 21.3364C16.6184 21.3356 16.3032 21.2716 16.0096 21.1482C15.716 21.0248 15.4497 20.8444 15.2262 20.6176L9.9314 15.3538L4.63661 20.621C4.29656 20.966 3.86046 21.2006 3.38516 21.2941C2.90986 21.3876 2.4174 21.3358 1.972 21.1453C1.52217 20.9644 1.13735 20.652 0.867803 20.249C0.598253 19.846 0.456496 19.371 0.461044 18.8862V4.97854C0.461044 3.83686 0.914574 2.74194 1.72186 1.93465C2.52915 1.12736 3.62407 0.673828 4.76575 0.673828L15.0971 0.673828C15.6624 0.673828 16.2221 0.785173 16.7444 1.0015C17.2667 1.21784 17.7412 1.53492 18.1409 1.93465C18.5407 2.33438 18.8578 2.80893 19.0741 3.3312C19.2904 3.85347 19.4018 4.41324 19.4018 4.97854V18.8862C19.4066 19.3706 19.2653 19.8453 18.9964 20.2483C18.7275 20.6512 18.3434 20.9638 17.8943 21.1453C17.591 21.2721 17.2656 21.3371 16.9369 21.3364ZM4.76575 2.39571C4.08074 2.39571 3.42379 2.66783 2.93942 3.1522C2.45505 3.63658 2.18293 4.29353 2.18293 4.97854V18.8862C2.18262 19.0297 2.22483 19.17 2.30423 19.2895C2.38364 19.409 2.49667 19.5022 2.62906 19.5575C2.76145 19.6128 2.90724 19.6276 3.04804 19.6C3.18883 19.5725 3.3183 19.5038 3.4201 19.4028L9.32875 13.5303C9.49005 13.3699 9.70826 13.2799 9.93571 13.2799C10.1632 13.2799 10.3814 13.3699 10.5427 13.5303L16.4444 19.401C16.5462 19.5021 16.6757 19.5708 16.8165 19.5983C16.9573 19.6259 17.1031 19.6111 17.2355 19.5558C17.3679 19.5005 17.4809 19.4072 17.5603 19.2878C17.6397 19.1683 17.6819 19.0279 17.6816 18.8845V4.97854C17.6816 4.29353 17.4095 3.63658 16.9251 3.1522C16.4407 2.66783 15.7838 2.39571 15.0988 2.39571H4.76575Z" fill="#898989"/>
</svg>
